# xmcd
#
# Track frame offsets:
#	150
#	17075
#	26266
#	38263
#	48371
#	60784
#	71328
#	82782
#	94496
#	109024
#	122857
#	137857
#	150294
#	164300
#	177943
#	189986
#	201989
#	217081
#	233510
#	246318
#	253572
#	260222
#	274584
#	287814
#	301127
#	315425
#	329260
#	341446
#
# Disc length: 4739
#
# Revision: 1
# Processed by: cddbd v1.5.1PL0 Copyright (c) Steve Scherf et al.
# Submitted via: CDex 1.50
# Normalized: r0:TDELIM( - )
#
DISCID=7912811c
DTITLE=Various Artist - History and Tradition JAZZ
DYEAR=1900
DGENRE=Jazz
TTITLE0=Someday My Prince will Come - Miles Davis
TTITLE1=It's My Little Annie/So Sweet - Horace Sprott
TTITLE2=Cross Road Blues - Robert Johnson
TTITLE3=Just a Closer Walk With Thee - Preservation Hall Jazz Band
TTITLE4=Maple Leaf Rag - Jelly Roll Morton
TTITLE5=Tiger Rag - Art Tatum
TTITLE6=Livery Stable Blues - Original Dixieland Jazz Band
TTITLE7=Dippermouth Blues - King Oliver's Creole Jazz Band
TTITLE8=Black Bottom Stomp - Jelly Roll Morton's Red Hot Peppers
TTITLE9=Heebie Jeebies - Louis Armstrong and His Hot Five
TTITLE10=West End Blues - Louis Armstrong and His Hot Five
TTITLE11=Weatherbird - Louis Armstrong and Earl Hines
TTITLE12=Nobody's Sweetheart - The McKenzie-Condon Chicagoans
TTITLE13=Singin' The Blues - Frankie Trumbauer and his Orchestra
TTITLE14=Gimme a Pigfoot and a Bottle of Beer - Bessie Smith
TTITLE15=Sweet Sue - Paul Whiteman Orchestra
TTITLE16=Hot 'N' Anxious - Fletcher Henderson Orchestra
TTITLE17=East St. Louis Toodle-Oo - Duke Ellington Orchestra
TTITLE18=Taxi War Dance - Count Basie Orchestra
TTITLE19=Take Me Back Baby - Jimmy Rushing
TTITLE20=Getting Sentimental Over You - Tommy Dorsey Orchestra
TTITLE21=King Porter Stomp - Benny Goodman Orchestra
TTITLE22=Good Enough To Keep - Benny Goodman Orchestra
TTITLE23=Take The "A" Train - Duke Ellington and His Orchestra
TTITLE24=Jumpin' At The Woodside - Count Basie Orchestra
TTITLE25=Body and Soul - Coleman Hawkins and his Orchestra
TTITLE26=Back In Your Own Backyard - Billie Holiday and Lester Young
TTITLE27=Manteca - Dizzy Gillespie Big Band
EXTD=
EXTT0=
EXTT1=
EXTT2=
EXTT3=
EXTT4=
EXTT5=
EXTT6=
EXTT7=
EXTT8=
EXTT9=
EXTT10=
EXTT11=
EXTT12=
EXTT13=
EXTT14=
EXTT15=
EXTT16=
EXTT17=
EXTT18=
EXTT19=
EXTT20=
EXTT21=
EXTT22=
EXTT23=
EXTT24=
EXTT25=
EXTT26=
EXTT27=
PLAYORDER=
